<svg version="1.1" id="Layer_1" xmlns="http://www.w3.org/2000/svg" xmlns:xlink="http://www.w3.org/1999/xlink" x="0px" y="0px"
	 width="80px" height="80px" viewBox="0 0 80 80" enable-background="new 0 0 80 80" xml:space="preserve">
<symbol  id="Kit_Outline" viewBox="-30 -30 60 60">
	<path opacity="0.27" fill="#000F00" d="M22.648,14.607c-1.375,1.04-9.822,6.282-10.872,6.927C11.494,21.685,8.768,23.001,0,23.001
		s-11.496-1.316-11.869-1.519c-0.959-0.593-9.406-5.835-10.781-6.875c-2.896-2.192,2.527-13.415,2.604-13.516
		c0.363-0.489,0.926-0.737,1.676-0.737c0.883,0,2.527,0.362,3.907,0.712c-0.384-4.571-1.177-14.729-1.078-19.045l0.014-0.598
		l0.399-0.441C-11.879-22.611-3.467-23,0-23c3.465,0,11.879,0.389,15.129,3.982l0.399,0.441l0.014,0.6
		c0.097,4.314-0.697,14.472-1.081,19.043c1.381-0.35,3.025-0.712,3.908-0.712h0.002c0.748,0,1.312,0.248,1.676,0.738
		C20.121,1.192,25.548,12.413,22.648,14.607"/>
	<polygon fill="none" points="30,-30 -30,-30 -30,30.001 30,30.001 	"/>
</symbol>
<use xlink:href="#Kit_Outline"  width="60" height="60" x="-30" y="-30" transform="matrix(1.3333 0 0 -1.3333 40 40)" overflow="visible"/>
<path fill="#FFFFFF" d="M25.278,13.172c0,0-12.407,7.688-14.212,9.055c-1.805,1.367,3.382,14.354,3.892,15.036
	c0.508,0.683,8.121-1.537,8.121-1.537s-1.86,20.848-1.693,28.194C24.94,67.85,35.093,68.535,40,68.535
	c4.903,0,15.06-0.686,18.61-4.615c0.169-7.347-1.691-28.194-1.691-28.194s7.616,2.22,8.121,1.537
	c0.509-0.682,5.696-13.669,3.894-15.036c-1.808-1.367-14.217-9.055-14.217-9.055S51.504,11.463,40,11.463
	C28.492,11.463,25.278,13.172,25.278,13.172"/>
<path fill="#E90010" d="M61.755,17.569l-1.645,0.875L61,18.777l-7,6.224l0.89,2.667l11.407-7.207
	C64.982,19.609,63.371,18.586,61.755,17.569z"/>
<path fill="#181B30" d="M59.051,15.873c-2.425-1.518-4.335-2.701-4.335-2.701s-2.095-1.094-8.849-1.529
	c0.046,0.865-0.44,2.639-1.374,4.427c2.977,1.028,7.719,3.192,9.063,6.883l4-3.81h-1.333L59.051,15.873z"/>
<path fill="#E90010" d="M18.147,17.569l1.645,0.875l-0.89,0.333l7,6.224l-0.89,2.667l-11.407-7.207
	C14.92,19.609,16.532,18.586,18.147,17.569z"/>
<path fill="#181B30" d="M20.851,15.873c2.425-1.518,4.335-2.701,4.335-2.701s2.095-1.094,8.849-1.529
	c-0.046,0.865,0.44,2.639,1.374,4.427c-2.977,1.028-7.719,3.192-9.063,6.883l-4-3.81h1.333L20.851,15.873z"/>
<g>
	<linearGradient id="SVGID_1_" gradientUnits="userSpaceOnUse" x1="39.9985" y1="11.4648" x2="39.9985" y2="20.7764">
		<stop  offset="0" style="stop-color:#5E5E5E;stop-opacity:0.21"/>
		<stop  offset="1" style="stop-color:#000000;stop-opacity:0.55"/>
	</linearGradient>
	<path fill="url(#SVGID_1_)" d="M34.13,11.639c-0.096,1.793,2.076,7.513,5.87,9.138c3.792-1.625,5.965-7.345,5.867-9.138
		c-1.661-0.107-3.602-0.174-5.867-0.174C37.73,11.465,35.794,11.531,34.13,11.639z"/>
</g>
<g>
	<path fill="#FFFFFF" d="M47.863,11.797c-0.021,2.834-2.632,8.917-7.074,10.819l-0.788,0.337l-0.786-0.337
		c-4.442-1.901-7.055-7.985-7.078-10.819l1.995-0.157c-0.097,1.793,2.075,7.513,5.869,9.138c3.792-1.625,5.965-7.345,5.867-9.138
		L47.863,11.797z"/>
</g>
</svg>